<?xml version="1.0" encoding="utf-8"?>
<!-- Generator: Adobe Illustrator 19.1.0, SVG Export Plug-In . SVG Version: 6.00 Build 0)  -->
<svg version="1.1" id="Layer_1" xmlns="http://www.w3.org/2000/svg" xmlns:xlink="http://www.w3.org/1999/xlink" x="0px" y="0px"
	 viewBox="0 0 521 80" style="enable-background:new 0 0 521 80;" xml:space="preserve">
<style type="text/css">
	.st0{fill:#FFFFFF;}
	.st1{opacity:0.9;fill:url(#SVGID_1_);}
	.st2{opacity:0.9;fill:#ED1968;}
	.st3{opacity:0.9;fill:#52BA65;}
	.st4{opacity:0.9;fill:#39C0C4;}
</style>
<path class="st0" d="M55.3,0.9l1.2,13.8h-1.5c-0.8-2.3-1.5-4-2.2-5.2c-0.7-1.2-1.9-2.2-3.6-3C47.4,5.7,45,5.3,42,5.3H26.8v31.8H40
	c2.8,0,5.3-0.7,7.6-2.1c2.3-1.4,3.5-4,3.7-7.7H53v22.5h-1.6c-0.2-2.3-1.1-4.3-2.6-5.9c-1.6-1.6-4-2.4-7.4-2.4H26.8v25.7
	c0,3,0.7,5.4,2.1,7.2c1.4,1.9,3.8,2.8,7.4,2.8h0.5v1.5H0v-1.5c4,0,6.5-0.9,7.7-2.7c1.2-1.8,1.8-4.2,1.8-7.3V12.4
	c0-2.7-0.5-5.1-1.6-7c-1-2-3.5-2.9-7.4-2.9H0V0.9H55.3z"/>
<path class="st0" d="M76.2,26.3l17.4,44.8c0.9,2.3,2,3.9,3.3,4.7c1.3,0.9,2.8,1.4,4.7,1.7v1H77.1v-1c3.4-0.2,5-1.2,5-3.2
	c0-0.3-0.1-0.7-0.2-1.3c-0.1-0.6-0.2-1.1-0.4-1.8c-0.2-0.6-0.3-1-0.3-1.1l-4.3-11H61.4l-3.7,10.6c-0.5,1.3-0.7,2.4-0.7,3.4
	c0,1.6,0.5,2.7,1.4,3.2c0.9,0.6,2.1,0.9,3.3,1.1v1H46.2v-1c1.6-0.2,3.1-0.9,4.5-2.3c1.4-1.3,2.8-3.8,4.1-7.4l14.7-41.6H76.2z
	 M62.6,55.8h12.9l-6.7-17.4L62.6,55.8z"/>
<linearGradient id="SVGID_1_" gradientUnits="userSpaceOnUse" x1="108.0352" y1="52.7344" x2="177.2578" y2="52.7344">
	<stop  offset="0.415" style="stop-color:#39C0C4"/>
	<stop  offset="0.5787" style="stop-color:#52BA65"/>
</linearGradient>
<path class="st1" d="M174.4,26.8v1c-1.4,0.1-2.5,0.3-3.4,0.5s-1.6,0.8-2.2,1.7c-0.6,0.9-0.8,2.2-0.6,3.9l2.8,34.8
	c0.2,2.4,0.6,4.2,1,5.4c0.5,1.2,1.1,1.9,1.8,2.3c0.7,0.4,1.8,0.8,3.4,1.1v1h-23.8v-1c2,0,3.6-0.6,4.7-1.6c1.1-1,1.6-3,1.4-6l-2.5-33
	h-0.1L140,78.6h-1.2l-17.4-40.2h-0.1l-2.3,28.9c-0.2,2.8,0,5,0.6,6.5s1.5,2.5,2.5,3c1,0.5,2.3,0.7,3.6,0.8v1H108v-1
	c2.2-0.1,3.9-1,5-2.7c1.1-1.6,1.9-4.4,2.3-8.2l1.8-30.3c0.1-1.7,0.6-4.8-0.3-6.1c-1.5-2.1-4.1-2-6.9-2.4v-1h18.7l15,34.1l13.9-34.1
	H174.4z"/>
<path class="st2" d="M196.8,27.8v-0.2v-0.2v-0.2v-0.2h6.1h6.1h6.1h6.1v0.3v0.3v0.3v0.3c-0.7,0-1.3,0-1.8,0.1s-1,0.2-1.5,0.3
	s-0.8,0.3-1.1,0.6s-0.6,0.5-0.8,0.8s-0.4,0.6-0.5,1s-0.3,0.7-0.4,1.1s-0.2,0.8-0.2,1.3c0,0.3-0.1,0.6-0.1,1c0,0.3,0,0.6,0.1,0.9
	l3.1,13l2.8,11.7c0.3,1.1,0,2.3-0.7,3.2l-0.5,0.7c-0.5,0.6-1.2,1-1.9,1.2l0,0c-1.6,0.4-2.8,1.9-2.8,3.6c0,0.2,0,0.5,0,0.7
	c0,1.6,0,3.3,0.1,3.5s0.1,0.5,0.1,0.8s0.1,0.5,0.1,0.7s0.1,0.5,0.2,0.7s0.2,0.4,0.4,0.6s0.3,0.4,0.5,0.6s0.4,0.4,0.6,0.6
	s0.5,0.3,0.8,0.5s0.6,0.3,0.9,0.3s0.7,0.2,1.1,0.2s0.8,0.1,1.3,0.1h0.1h0.1h0.1h0.1v0.3v0.3v0.3v0.3h-6.1H209h-6.1h-6.1v-0.3v-0.3
	v-0.3v-0.3c0.7,0,1.3,0,1.8-0.1s1-0.2,1.5-0.3s0.8-0.3,1.1-0.6s0.6-0.5,0.8-0.8c0.2-0.3,0.4-0.6,0.5-1c0.1-0.4,0.3-0.7,0.4-1.1
	s0.2-2.2,0.2-4c0-0.4,0-0.8,0-1.2c0-1.7-1.2-3.3-2.9-3.7l-0.1,0c-1-0.2-1.8-0.8-2.3-1.6l-0.2-0.4c-0.5-0.8-0.7-1.8-0.5-2.8l2.8-12
	l3.1-13c0.1-0.3,0.1-0.6,0.1-1c0-0.4,0-0.8-0.1-1.2c-0.1-0.5-0.2-1-0.3-1.4s-0.3-0.8-0.5-1.2c-0.2-0.3-0.4-0.7-0.7-0.9
	c-0.3-0.3-0.6-0.5-0.9-0.7s-0.7-0.4-1.1-0.5s-0.8-0.2-1.3-0.3S197.4,27.8,196.8,27.8z"/>
<path class="st0" d="M271.6,78.6h-39.4v-1c2.7,0,4.4-0.6,5.2-1.8c0.8-1.2,1.2-2.8,1.2-4.9V34.6c0-2.2-0.5-3.9-1.5-5
	c-1-1.1-2.6-1.7-4.9-1.7v-1h24.5v1c-2.7,0-4.5,0.6-5.3,1.8c-0.8,1.2-1.2,2.8-1.2,4.9v34.6c0,2.1,0.4,3.8,1.2,4.9
	c0.8,1.1,2.4,1.7,4.8,1.7h3.6c2.4,0,4.7-0.6,6.9-1.9c2.2-1.2,4.1-4.1,5.8-8.6h1L271.6,78.6z"/>
<path class="st0" d="M319.4,26.8v1c-2.6,0.1-4.8,0.8-6.9,2.2c-2,1.3-4.1,3.5-6.1,6.5l-9.6,14.2v20.1c0,2.3,0.5,4,1.4,5.1
	c0.9,1.1,2.6,1.6,5,1.6v1h-24.3v-1c2.7,0,4.4-0.6,5.2-1.8c0.8-1.2,1.2-2.8,1.2-4.9V53.6l-15.4-20.4c-1.7-2.3-3.1-3.7-4.1-4.4
	c-1.1-0.6-2.4-1-3.9-1v-1h25.5v1c-1.3,0-2.4,0.2-3.2,0.5s-1.2,0.9-1.2,1.9c0,0.9,0.7,2.2,2,4.1l9.6,13.7l7.7-11.5c1.3-2,2-3.8,2-5.5
	c0-0.8-0.3-1.6-1-2.2c-0.7-0.7-1.8-1-3.5-1v-1H319.4z"/>
<path class="st0" d="M318.3,0.9h54.3c2.5,0,4.6-0.3,6.2-0.9h1.5l0.4,18.2h-1.5c-0.8-5.3-2.1-8.7-3.9-10.2c-1.8-1.5-4.1-2.2-6.8-2.2
	h-14.5v61.2c0,2,0.2,3.8,0.7,5.2c0.5,1.4,1.4,2.6,2.8,3.5c1.4,0.9,3.5,1.3,6.2,1.3v1.5h-36.5v-1.5c4,0,6.7-0.9,7.9-2.7
	c1.2-1.8,1.8-4.3,1.8-7.3V5.9h-14.5c-2.5,0-4.5,0.8-6,2.3c-1.5,1.6-3.1,4.9-4.5,10h-1.6L310.6,0h1.5C313.8,0.6,315.8,0.9,318.3,0.9z
	"/>
<path class="st0" d="M383.6,27.8v-0.9h24.3v1c-2.7,0-4.4,0.6-5.2,1.8s-1.2,2.9-1.2,4.9v36.4c0,1.1,0.1,2.2,0.3,3.1s0.8,1.7,1.7,2.5
	s2.3,1.1,4.1,1.1h0.3v1h-24.3v-1c2.7,0,4.4-0.6,5.2-1.8c0.8-1.2,1.2-2.8,1.2-4.9V34.6c0-2.4-0.5-4.1-1.6-5.2
	C387.4,28.3,385.8,27.8,383.6,27.8z"/>
<path class="st0" d="M475.9,26.8v1c-1.4,0.1-2.5,0.3-3.4,0.5s-1.6,0.8-2.2,1.7s-0.8,2.2-0.6,3.9l2.8,34.8c0.2,2.4,0.6,4.2,1,5.4
	s1.1,1.9,1.8,2.3c0.7,0.4,1.8,0.8,3.4,1.1v1H455v-1c2,0,3.6-0.6,4.7-1.6c1.1-1,1.6-3,1.4-6l-2.5-33h-0.1l-16.9,41.6h-1.2l-17.4-40.2
	h-0.1l-2.3,28.9c-0.2,2.8,0,5,0.6,6.5s1.5,2.5,2.5,3s2.3,0.7,3.6,0.8v1h-17.6v-1c2.2-0.1,3.9-1,5-2.7c1.1-1.6,1.9-4.4,2.3-8.2
	l3.5-32.8c-2.2-3.5-5.2-5.5-8.9-6.1v-1h18.7l15,34.1L459,26.8H475.9z"/>
<path class="st0" d="M517.7,26.8l0.4,11.6h-1c-0.5-1.9-1-3.6-1.6-4.8s-1.4-2.2-2.4-2.9s-2.5-1-4.3-1h-10.4v21.8h8.3
	c2.5,0,4.3-0.6,5.4-1.7c1.1-1.1,1.8-2.7,2-4.9h1v15.2h-1c-0.4-2.3-1.2-3.8-2.6-4.6s-3-1.2-4.9-1.2h-8.3v14.9c0,4.3,2.2,6.5,6.7,6.5
	h3.2c2.1,0,3.9-0.3,5.2-0.8s2.5-1.5,3.3-2.9s1.7-3.3,2.4-5.8h1l-0.8,12.4h-39v-1c2.7,0,4.5-0.6,5.3-1.8s1.2-2.8,1.2-4.8V34.6
	c0-1.9-0.4-3.5-1.1-4.8c-0.7-1.3-2.4-2-5-2h-0.4v-1H517.7z"/>
<circle class="st2" cx="208.7" cy="11" r="10"/>
<circle class="st3" cx="164.7" cy="11" r="10"/>
<circle class="st4" cx="121.7" cy="11" r="10"/>
<path class="st2" d="M189.3,56.9L189.3,56.9c1.5,0.6,3.2-0.2,3.8-1.7l7.9-21.3c0.6-1.5-0.2-3.2-1.7-3.8l0,0
	c-1.5-0.6-3.2,0.2-3.8,1.7l-7.9,21.3C187,54.6,187.8,56.3,189.3,56.9z"/>
<path class="st2" d="M228.7,56.9L228.7,56.9c-1.5,0.6-3.2-0.2-3.8-1.7l-7.9-21.3c-0.6-1.5,0.2-3.2,1.7-3.8v0
	c1.5-0.6,3.2,0.2,3.8,1.7l7.9,21.3C231,54.6,230.2,56.3,228.7,56.9z"/>
<path class="st3" d="M181.9,56.9L181.9,56.9c-1.5,0.6-3.2-0.2-3.8-1.7l-7.9-21.3c-0.6-1.5,0.2-3.2,1.7-3.8l0,0
	c1.5-0.6,3.2,0.2,3.8,1.7l7.9,21.3C184.2,54.6,183.4,56.3,181.9,56.9z"/>
<path class="st4" d="M104,56.9L104,56.9c1.5,0.6,3.2-0.2,3.8-1.7l7.9-21.3c0.6-1.5-0.2-3.2-1.7-3.8l0,0c-1.5-0.6-3.2,0.2-3.8,1.7
	l-7.9,21.3C101.7,54.6,102.5,56.3,104,56.9z"/>
</svg>
