<?xml version="1.0" encoding="utf-8"?>
<!-- Generator: Adobe Illustrator 19.1.0, SVG Export Plug-In . SVG Version: 6.00 Build 0)  -->
<svg version="1.1" id="Layer_1" xmlns="http://www.w3.org/2000/svg" xmlns:xlink="http://www.w3.org/1999/xlink" x="0px" y="0px"
	 viewBox="0 0 150 16" style="enable-background:new 0 0 150 16;" xml:space="preserve">
<style type="text/css">
	.st0{fill:#010101;}
</style>
<g>
	<path class="st0" d="M8.3,2.1h2.5v13.6H8.3L2.7,6.3v9.4H0.2V2.1h2.5l5.6,9.4V2.1z"/>
	<path class="st0" d="M16.3,2.2c0,0.5-0.1,0.9-0.4,1.2c-0.3,0.3-0.7,0.5-1.1,0.5S14,3.7,13.7,3.4c-0.3-0.3-0.4-0.7-0.4-1.2
		s0.1-0.9,0.4-1.2s0.6-0.5,1.1-0.5c0.4,0,0.8,0.2,1.1,0.5C16.1,1.3,16.3,1.7,16.3,2.2z M13.5,15.7V4.9H16v10.8
		C16,15.7,13.5,15.7,13.5,15.7z"/>
	<path class="st0" d="M18.1,8.1c0-0.9,0.4-1.7,1.1-2.4c0.7-0.6,1.7-1,2.9-1S24.3,5,25,5.6s1.1,1.5,1.2,2.6h-2.6
		c-0.1-0.9-0.6-1.4-1.5-1.4c-0.5,0-0.8,0.1-1.1,0.3c-0.3,0.2-0.4,0.5-0.4,0.9c0,0.4,0.2,0.6,0.6,0.9c0.4,0.2,0.9,0.4,1.4,0.5
		c0.6,0.1,1.1,0.3,1.7,0.4c0.6,0.2,1,0.5,1.4,0.9s0.6,1,0.6,1.8c0,1-0.4,1.8-1.1,2.4c-0.8,0.6-1.7,0.9-2.9,0.9s-2.1-0.3-2.9-0.9
		s-1.2-1.5-1.2-2.6h2.6c0.1,0.9,0.6,1.4,1.6,1.4c0.5,0,0.8-0.1,1.1-0.3s0.4-0.5,0.4-0.9s-0.2-0.7-0.6-0.9c-0.4-0.2-0.9-0.4-1.4-0.5
		c-0.6-0.1-1.1-0.3-1.7-0.4c-0.6-0.2-1-0.5-1.4-0.9C18.3,9.3,18.1,8.8,18.1,8.1z"/>
	<path class="st0" d="M30.9,1.3v5.2c0.6-1.2,1.7-1.8,3.1-1.8c1.1,0,2.1,0.4,2.8,1.2s1.1,1.9,1.1,3.4v6.3h-2.5V9.7
		c0-0.8-0.2-1.5-0.6-1.9c-0.4-0.4-0.9-0.7-1.6-0.7c-0.7,0-1.2,0.2-1.6,0.7C31.2,8.2,31,8.9,31,9.7v5.9h-2.5V1.3H30.9z"/>
	<path class="st0" d="M41.1,14.3c-0.9-1-1.3-2.4-1.3-4s0.4-2.9,1.3-4c0.9-1,2-1.5,3.4-1.5s2.4,0.6,3.1,1.8V4.9H50v10.8h-2.5v-1.8
		c-0.8,1.3-1.8,2-3.1,2C43.1,15.8,42,15.3,41.1,14.3z M46.7,12.6c0.5-0.6,0.8-1.3,0.8-2.3S47.2,8.5,46.7,8c-0.5-0.6-1.1-0.8-1.8-0.8
		S43.6,7.5,43.1,8c-0.5,0.6-0.8,1.3-0.8,2.3s0.3,1.8,0.8,2.3c0.5,0.6,1.1,0.9,1.8,0.9C45.6,13.5,46.2,13.2,46.7,12.6z"/>
	<path class="st0" d="M55.2,4.9v1.6c0.6-1.2,1.7-1.8,3.1-1.8c1.1,0,2.1,0.4,2.8,1.2c0.7,0.8,1.1,1.9,1.1,3.4v6.3h-2.5V9.7
		c0-0.8-0.2-1.5-0.6-1.9c-0.4-0.4-0.9-0.7-1.6-0.7s-1.2,0.2-1.6,0.7c-0.4,0.4-0.6,1.1-0.6,1.9v5.9h-2.5V4.9H55.2z"/>
	<path class="st0" d="M68.6,13.4h1.2v2.3h-1.6c-1,0-1.8-0.3-2.3-0.8S65,13.6,65,12.4V7.1H64V4.9h1V2.3h2.5V5h2.2v2.2h-2.2v5.3
		c0,0.3,0.1,0.6,0.2,0.7C67.9,13.3,68.2,13.4,68.6,13.4z"/>
	<path class="st0" d="M85.2,8.9c-0.3,0.4-0.8,0.8-1.4,1c-0.6,0.3-1.3,0.4-2.2,0.4h-2.1v5.4H77V2.1h4.6c1.4,0,2.6,0.4,3.3,1.2
		c0.8,0.8,1.2,1.7,1.2,2.8C86.2,7.1,85.9,8.1,85.2,8.9z M79.6,8.2h2.1c0.6,0,1.1-0.2,1.4-0.5c0.3-0.4,0.5-0.8,0.5-1.4
		s-0.2-1.1-0.5-1.4c-0.3-0.4-0.8-0.5-1.4-0.5h-2.1V8.2z"/>
	<path class="st0" d="M88.7,14.3c-0.9-1-1.3-2.4-1.3-4s0.4-2.9,1.3-4c0.9-1,2-1.5,3.4-1.5s2.4,0.6,3.1,1.8V4.9h2.5v10.8h-2.5v-1.8
		c-0.8,1.3-1.8,2-3.1,2C90.7,15.8,89.6,15.3,88.7,14.3z M94.4,12.6c0.5-0.6,0.8-1.3,0.8-2.3S94.9,8.5,94.4,8
		c-0.5-0.6-1.1-0.8-1.8-0.8S91.2,7.5,90.8,8c-0.5,0.6-0.8,1.3-0.8,2.3s0.3,1.8,0.8,2.3c0.5,0.6,1.1,0.9,1.8,0.9S93.9,13.2,94.4,12.6
		z"/>
	<path class="st0" d="M102.9,4.9v1.6c0.6-1.2,1.7-1.8,3.1-1.8c1.1,0,2.1,0.4,2.8,1.2c0.7,0.8,1.1,1.9,1.1,3.4v6.3h-2.5V9.7
		c0-0.8-0.2-1.5-0.6-1.9c-0.4-0.4-0.9-0.7-1.6-0.7s-1.2,0.2-1.6,0.7c-0.4,0.4-0.6,1.1-0.6,1.9v5.9h-2.5V4.9H102.9z"/>
	<path class="st0" d="M113,14.3c-0.9-1-1.4-2.4-1.4-4s0.5-3,1.4-4s2.1-1.5,3.5-1.5c1.2,0,2.2,0.3,3,1c0.8,0.6,1.4,1.5,1.6,2.7h-2.7
		c-0.3-0.9-1-1.3-1.9-1.3c-0.7,0-1.3,0.3-1.7,0.9s-0.6,1.4-0.6,2.4s0.2,1.8,0.6,2.4c0.4,0.6,1,0.9,1.7,0.9c1,0,1.6-0.5,1.9-1.4h2.7
		c-0.3,1.1-0.8,2-1.7,2.7c-0.8,0.7-1.8,1-3,1C115.1,15.8,113.8,15.3,113,14.3z"/>
	<path class="st0" d="M125.6,1.3v5.2c0.6-1.2,1.7-1.8,3.1-1.8c1.1,0,2.1,0.4,2.8,1.2s1.1,1.9,1.1,3.4v6.3h-2.6V9.7
		c0-0.8-0.2-1.5-0.6-1.9c-0.4-0.4-0.9-0.7-1.6-0.7c-0.7,0-1.2,0.2-1.6,0.7c-0.4,0.4-0.6,1.1-0.6,1.9v5.9H123V1.3H125.6z"/>
	<path class="st0" d="M135.6,14.3c-0.9-1-1.3-2.4-1.3-4s0.4-2.9,1.3-4c0.9-1,2-1.5,3.4-1.5s2.4,0.6,3.1,1.8V4.9h2.5v10.8h-2.5v-1.8
		c-0.8,1.3-1.8,2-3.1,2C137.6,15.8,136.6,15.3,135.6,14.3z M141.3,12.6c0.5-0.6,0.8-1.3,0.8-2.3s-0.3-1.8-0.8-2.3
		c-0.5-0.6-1.1-0.8-1.8-0.8s-1.3,0.3-1.8,0.8c-0.6,0.5-0.8,1.3-0.8,2.3s0.3,1.8,0.8,2.3c0.5,0.6,1.1,0.9,1.8,0.9
		S140.8,13.2,141.3,12.6z"/>
	<path class="st0" d="M147.3,15.7V1.3h2.5v14.4H147.3z"/>
</g>
</svg>
