<?xml version="1.0" encoding="utf-8"?>
<!-- Generator: Adobe Illustrator 19.1.0, SVG Export Plug-In . SVG Version: 6.00 Build 0)  -->
<svg version="1.1" id="Layer_1" xmlns="http://www.w3.org/2000/svg" xmlns:xlink="http://www.w3.org/1999/xlink" x="0px" y="0px"
	 viewBox="0 0 195 16" style="enable-background:new 0 0 195 16;" xml:space="preserve">
<g>
	<path d="M24.3,1.6h2.5v13.6h-2.5l-5.6-9.4v9.4h-2.5V1.6h2.5l5.6,9.4V1.6z"/>
	<path d="M32.3,1.7c0,0.5-0.1,0.9-0.4,1.2c-0.3,0.3-0.7,0.5-1.1,0.5c-0.4,0-0.8-0.2-1.1-0.5s-0.4-0.7-0.4-1.2s0.1-0.9,0.4-1.2
		S30.3,0,30.8,0c0.4,0,0.8,0.2,1.1,0.5C32.1,0.8,32.3,1.2,32.3,1.7z M29.5,15.2V4.4H32v10.8H29.5z"/>
	<path d="M34.1,7.6c0-0.9,0.4-1.7,1.1-2.4c0.7-0.6,1.7-1,2.9-1c1.2,0,2.2,0.3,2.9,0.9c0.7,0.6,1.1,1.5,1.2,2.6h-2.6
		c-0.1-0.9-0.6-1.4-1.5-1.4c-0.5,0-0.8,0.1-1.1,0.3c-0.3,0.2-0.4,0.5-0.4,0.9c0,0.4,0.2,0.6,0.6,0.9c0.4,0.2,0.9,0.4,1.4,0.5
		c0.6,0.1,1.1,0.3,1.7,0.4c0.6,0.2,1,0.5,1.4,0.9c0.4,0.4,0.6,1,0.6,1.8c0,1-0.4,1.8-1.1,2.4c-0.8,0.6-1.7,0.9-2.9,0.9
		c-1.2,0-2.1-0.3-2.9-0.9s-1.2-1.5-1.2-2.6h2.6c0.1,0.9,0.6,1.4,1.6,1.4c0.5,0,0.8-0.1,1.1-0.3c0.3-0.2,0.4-0.5,0.4-0.9
		c0-0.4-0.2-0.7-0.6-0.9c-0.4-0.2-0.9-0.4-1.4-0.5c-0.6-0.1-1.1-0.3-1.7-0.4c-0.6-0.2-1-0.5-1.4-0.9C34.3,8.8,34.1,8.3,34.1,7.6z"/>
	<path d="M46.9,0.8V6c0.6-1.2,1.7-1.8,3.1-1.8c1.1,0,2.1,0.4,2.8,1.2c0.7,0.8,1.1,1.9,1.1,3.4v6.3h-2.5V9.2c0-0.8-0.2-1.5-0.6-1.9
		c-0.4-0.4-0.9-0.7-1.6-0.7c-0.7,0-1.2,0.2-1.6,0.7c-0.4,0.4-0.6,1.1-0.6,1.9v5.9h-2.5V0.8H46.9z"/>
	<path d="M57.1,13.8c-0.9-1-1.3-2.4-1.3-4c0-1.6,0.4-2.9,1.3-4c0.9-1,2-1.5,3.4-1.5s2.4,0.6,3.1,1.8V4.4H66v10.8h-2.5v-1.8
		c-0.8,1.3-1.8,2-3.1,2C59.1,15.3,58,14.8,57.1,13.8z M62.7,12.1c0.5-0.6,0.8-1.3,0.8-2.3c0-1-0.3-1.8-0.8-2.3
		c-0.5-0.6-1.1-0.8-1.8-0.8c-0.7,0-1.3,0.3-1.8,0.8c-0.5,0.6-0.8,1.3-0.8,2.3c0,1,0.3,1.8,0.8,2.3c0.5,0.6,1.1,0.9,1.8,0.9
		C61.6,13,62.2,12.7,62.7,12.1z"/>
	<path d="M71.2,4.4V6c0.6-1.2,1.7-1.8,3.1-1.8c1.1,0,2.1,0.4,2.8,1.2c0.7,0.8,1.1,1.9,1.1,3.4v6.3h-2.5V9.2c0-0.8-0.2-1.5-0.6-1.9
		c-0.4-0.4-0.9-0.7-1.6-0.7c-0.7,0-1.2,0.2-1.6,0.7c-0.4,0.4-0.6,1.1-0.6,1.9v5.9h-2.5V4.4H71.2z"/>
	<path d="M84.6,12.9h1.2v2.3h-1.6c-1,0-1.8-0.3-2.3-0.8c-0.5-0.5-0.8-1.3-0.8-2.5V6.6H80V4.4H81V1.8h2.5v2.7h2.2v2.2h-2.2v5.3
		c0,0.3,0.1,0.6,0.2,0.7C83.9,12.8,84.2,12.9,84.6,12.9z"/>
	<path d="M101.2,8.4c-0.3,0.4-0.8,0.8-1.4,1c-0.6,0.3-1.3,0.4-2.2,0.4h-2.1v5.4h-2.5V1.6h4.6c1.4,0,2.6,0.4,3.3,1.2
		c0.8,0.8,1.2,1.7,1.2,2.8C102.2,6.6,101.9,7.6,101.2,8.4z M95.6,7.7h2.1c0.6,0,1.1-0.2,1.4-0.5c0.3-0.4,0.5-0.8,0.5-1.4
		c0-0.6-0.2-1.1-0.5-1.4c-0.3-0.4-0.8-0.5-1.4-0.5h-2.1V7.7z"/>
	<path d="M104.7,13.8c-0.9-1-1.3-2.4-1.3-4c0-1.6,0.4-2.9,1.3-4c0.9-1,2-1.5,3.4-1.5c1.4,0,2.4,0.6,3.1,1.8V4.4h2.5v10.8h-2.5v-1.8
		c-0.8,1.3-1.8,2-3.1,2C106.7,15.3,105.6,14.8,104.7,13.8z M110.4,12.1c0.5-0.6,0.8-1.3,0.8-2.3c0-1-0.3-1.8-0.8-2.3
		c-0.5-0.6-1.1-0.8-1.8-0.8s-1.3,0.3-1.8,0.8c-0.5,0.6-0.8,1.3-0.8,2.3c0,1,0.3,1.8,0.8,2.3c0.5,0.6,1.1,0.9,1.8,0.9
		S109.9,12.7,110.4,12.1z"/>
	<path d="M118.9,4.4V6c0.6-1.2,1.7-1.8,3.1-1.8c1.1,0,2.1,0.4,2.8,1.2c0.7,0.8,1.1,1.9,1.1,3.4v6.3h-2.5V9.2c0-0.8-0.2-1.5-0.6-1.9
		c-0.4-0.4-0.9-0.7-1.6-0.7c-0.7,0-1.2,0.2-1.6,0.7c-0.4,0.4-0.6,1.1-0.6,1.9v5.9h-2.5V4.4H118.9z"/>
	<path d="M129,13.8c-0.9-1-1.4-2.4-1.4-4s0.5-3,1.4-4c0.9-1,2.1-1.5,3.5-1.5c1.2,0,2.2,0.3,3,1c0.8,0.6,1.4,1.5,1.6,2.7h-2.7
		c-0.3-0.9-1-1.3-1.9-1.3c-0.7,0-1.3,0.3-1.7,0.9c-0.4,0.6-0.6,1.4-0.6,2.4s0.2,1.8,0.6,2.4c0.4,0.6,1,0.9,1.7,0.9
		c1,0,1.6-0.5,1.9-1.4h2.7c-0.3,1.1-0.8,2-1.7,2.7c-0.8,0.7-1.8,1-3,1C131.1,15.3,129.9,14.8,129,13.8z"/>
	<path d="M141.6,0.8V6c0.6-1.2,1.7-1.8,3.1-1.8c1.1,0,2.1,0.4,2.8,1.2c0.7,0.8,1.1,1.9,1.1,3.4v6.3H146V9.2c0-0.8-0.2-1.5-0.6-1.9
		c-0.4-0.4-0.9-0.7-1.6-0.7s-1.2,0.2-1.6,0.7c-0.4,0.4-0.6,1.1-0.6,1.9v5.9h-2.5V0.8H141.6z"/>
	<path d="M151.7,13.8c-0.9-1-1.3-2.4-1.3-4c0-1.6,0.4-2.9,1.3-4c0.9-1,2-1.5,3.4-1.5c1.4,0,2.4,0.6,3.1,1.8V4.4h2.5v10.8h-2.5v-1.8
		c-0.8,1.3-1.8,2-3.1,2C153.7,15.3,152.6,14.8,151.7,13.8z M157.4,12.1c0.5-0.6,0.8-1.3,0.8-2.3c0-1-0.3-1.8-0.8-2.3
		c-0.5-0.6-1.1-0.8-1.8-0.8s-1.3,0.3-1.8,0.8C153.2,8,153,8.8,153,9.8c0,1,0.3,1.8,0.8,2.3c0.5,0.6,1.1,0.9,1.8,0.9
		C156.3,13,156.9,12.7,157.4,12.1z"/>
	<path d="M163.4,15.2V0.8h2.5v14.4H163.4z"/>
</g>
</svg>
