<?xml version="1.0" encoding="UTF-8"?>
<svg width="189px" height="24px" viewBox="0 0 189 24" version="1.1" xmlns="http://www.w3.org/2000/svg" xmlns:xlink="http://www.w3.org/1999/xlink">
    <!-- Generator: Sketch 41.2 (35397) - http://www.bohemiancoding.com/sketch -->
    <title>Web_Logo1</title>
    <desc>Created with Sketch.</desc>
    <defs></defs>
    <g id="Page-1" stroke="none" stroke-width="1" fill="none" fill-rule="evenodd">
        <g id="Web_Logo1" fill="#FFFFFF">
            <g id="Page-1">
                <g id="Web_Logo1">
                    <g id="NishantPanchal" transform="translate(39.000000, 2.000000)">
                        <g id="Group">
                            <polygon id="Shape" points="8.3 2.1 10.8 2.1 10.8 15.7 8.3 15.7 2.7 6.3 2.7 15.7 0.2 15.7 0.2 2.1 2.7 2.1 8.3 11.5"></polygon>
                            <path d="M16.3,2.2 C16.3,2.7 16.2,3.1 15.9,3.4 C15.6,3.7 15.2,3.9 14.8,3.9 C14.4,3.9 14,3.7 13.7,3.4 C13.4,3.1 13.3,2.7 13.3,2.2 C13.3,1.7 13.4,1.3 13.7,1 C14,0.7 14.3,0.5 14.8,0.5 C15.2,0.5 15.6,0.7 15.9,1 C16.1,1.3 16.3,1.7 16.3,2.2 Z M13.5,15.7 L13.5,4.9 L16,4.9 L16,15.7 L13.5,15.7 Z" id="Shape"></path>
                            <path d="M18.1,8.1 C18.1,7.2 18.5,6.4 19.2,5.7 C19.9,5.1 20.9,4.7 22.1,4.7 C23.3,4.7 24.3,5 25,5.6 C25.7,6.2 26.1,7.1 26.2,8.2 L23.6,8.2 C23.5,7.3 23,6.8 22.1,6.8 C21.6,6.8 21.3,6.9 21,7.1 C20.7,7.3 20.6,7.6 20.6,8 C20.6,8.4 20.8,8.6 21.2,8.9 C21.6,9.1 22.1,9.3 22.6,9.4 C23.2,9.5 23.7,9.7 24.3,9.8 C24.9,10 25.3,10.3 25.7,10.7 C26.1,11.1 26.3,11.7 26.3,12.5 C26.3,13.5 25.9,14.3 25.2,14.9 C24.4,15.5 23.5,15.8 22.3,15.8 C21.1,15.8 20.2,15.5 19.4,14.9 C18.6,14.3 18.2,13.4 18.2,12.3 L20.8,12.3 C20.9,13.2 21.4,13.7 22.4,13.7 C22.9,13.7 23.2,13.6 23.5,13.4 C23.8,13.2 23.9,12.9 23.9,12.5 C23.9,12.1 23.7,11.8 23.3,11.6 C22.9,11.4 22.4,11.2 21.9,11.1 C21.3,11 20.8,10.8 20.2,10.7 C19.6,10.5 19.2,10.2 18.8,9.8 C18.3,9.3 18.1,8.8 18.1,8.1 Z" id="Shape"></path>
                            <path d="M30.9,1.3 L30.9,6.5 C31.5,5.3 32.6,4.7 34,4.7 C35.1,4.7 36.1,5.1 36.8,5.9 C37.5,6.7 37.9,7.8 37.9,9.3 L37.9,15.6 L35.4,15.6 L35.4,9.7 C35.4,8.9 35.2,8.2 34.8,7.8 C34.4,7.4 33.9,7.1 33.2,7.1 C32.5,7.1 32,7.3 31.6,7.8 C31.2,8.2 31,8.9 31,9.7 L31,15.6 L28.5,15.6 L28.5,1.3 L30.9,1.3 Z" id="Shape"></path>
                            <path d="M41.1,14.3 C40.2,13.3 39.8,11.9 39.8,10.3 C39.8,8.7 40.2,7.4 41.1,6.3 C42,5.3 43.1,4.8 44.5,4.8 C45.9,4.8 46.9,5.4 47.6,6.6 L47.6,4.9 L50,4.9 L50,15.7 L47.5,15.7 L47.5,13.9 C46.7,15.2 45.7,15.9 44.4,15.9 C43.1,15.8 42,15.3 41.1,14.3 Z M46.7,12.6 C47.2,12 47.5,11.3 47.5,10.3 C47.5,9.3 47.2,8.5 46.7,8 C46.2,7.4 45.6,7.2 44.9,7.2 C44.2,7.2 43.6,7.5 43.1,8 C42.6,8.6 42.3,9.3 42.3,10.3 C42.3,11.3 42.6,12.1 43.1,12.6 C43.6,13.2 44.2,13.5 44.9,13.5 C45.6,13.5 46.2,13.2 46.7,12.6 Z" id="Shape"></path>
                            <path d="M55.2,4.9 L55.2,6.5 C55.8,5.3 56.9,4.7 58.3,4.7 C59.4,4.7 60.4,5.1 61.1,5.9 C61.8,6.7 62.2,7.8 62.2,9.3 L62.2,15.6 L59.7,15.6 L59.7,9.7 C59.7,8.9 59.5,8.2 59.1,7.8 C58.7,7.4 58.2,7.1 57.5,7.1 C56.8,7.1 56.3,7.3 55.9,7.8 C55.5,8.2 55.3,8.9 55.3,9.7 L55.3,15.6 L52.8,15.6 L52.8,4.9 L55.2,4.9 Z" id="Shape"></path>
                            <path d="M68.6,13.4 L69.8,13.4 L69.8,15.7 L68.2,15.7 C67.2,15.7 66.4,15.4 65.9,14.9 C65.4,14.4 65,13.6 65,12.4 L65,7.1 L64,7.1 L64,4.9 L65,4.9 L65,2.3 L67.5,2.3 L67.5,5 L69.7,5 L69.7,7.2 L67.5,7.2 L67.5,12.5 C67.5,12.8 67.6,13.1 67.7,13.2 C67.9,13.3 68.2,13.4 68.6,13.4 Z" id="Shape"></path>
                            <path d="M85.2,8.9 C84.9,9.3 84.4,9.7 83.8,9.9 C83.2,10.2 82.5,10.3 81.6,10.3 L79.5,10.3 L79.5,15.7 L77,15.7 L77,2.1 L81.6,2.1 C83,2.1 84.2,2.5 84.9,3.3 C85.7,4.1 86.1,5 86.1,6.1 C86.2,7.1 85.9,8.1 85.2,8.9 Z M79.6,8.2 L81.7,8.2 C82.3,8.2 82.8,8 83.1,7.7 C83.4,7.3 83.6,6.9 83.6,6.3 C83.6,5.7 83.4,5.2 83.1,4.9 C82.8,4.5 82.3,4.4 81.7,4.4 L79.6,4.4 L79.6,8.2 Z" id="Shape"></path>
                            <path d="M88.7,14.3 C87.8,13.3 87.4,11.9 87.4,10.3 C87.4,8.7 87.8,7.4 88.7,6.3 C89.6,5.3 90.7,4.8 92.1,4.8 C93.5,4.8 94.5,5.4 95.2,6.6 L95.2,4.9 L97.7,4.9 L97.7,15.7 L95.2,15.7 L95.2,13.9 C94.4,15.2 93.4,15.9 92.1,15.9 C90.7,15.8 89.6,15.3 88.7,14.3 Z M94.4,12.6 C94.9,12 95.2,11.3 95.2,10.3 C95.2,9.3 94.9,8.5 94.4,8 C93.9,7.4 93.3,7.2 92.6,7.2 C91.9,7.2 91.2,7.5 90.8,8 C90.3,8.6 90,9.3 90,10.3 C90,11.3 90.3,12.1 90.8,12.6 C91.3,13.2 91.9,13.5 92.6,13.5 C93.3,13.5 93.9,13.2 94.4,12.6 Z" id="Shape"></path>
                            <path d="M102.9,4.9 L102.9,6.5 C103.5,5.3 104.6,4.7 106,4.7 C107.1,4.7 108.1,5.1 108.8,5.9 C109.5,6.7 109.9,7.8 109.9,9.3 L109.9,15.6 L107.4,15.6 L107.4,9.7 C107.4,8.9 107.2,8.2 106.8,7.8 C106.4,7.4 105.9,7.1 105.2,7.1 C104.5,7.1 104,7.3 103.6,7.8 C103.2,8.2 103,8.9 103,9.7 L103,15.6 L100.5,15.6 L100.5,4.9 L102.9,4.9 Z" id="Shape"></path>
                            <path d="M113,14.3 C112.1,13.3 111.6,11.9 111.6,10.3 C111.6,8.7 112.1,7.3 113,6.3 C113.9,5.3 115.1,4.8 116.5,4.8 C117.7,4.8 118.7,5.1 119.5,5.8 C120.3,6.4 120.9,7.3 121.1,8.5 L118.4,8.5 C118.1,7.6 117.4,7.2 116.5,7.2 C115.8,7.2 115.2,7.5 114.8,8.1 C114.4,8.7 114.2,9.5 114.2,10.5 C114.2,11.5 114.4,12.3 114.8,12.9 C115.2,13.5 115.8,13.8 116.5,13.8 C117.5,13.8 118.1,13.3 118.4,12.4 L121.1,12.4 C120.8,13.5 120.3,14.4 119.4,15.1 C118.6,15.8 117.6,16.1 116.4,16.1 C115.1,15.8 113.8,15.3 113,14.3 Z" id="Shape"></path>
                            <path d="M125.6,1.3 L125.6,6.5 C126.2,5.3 127.3,4.7 128.7,4.7 C129.8,4.7 130.8,5.1 131.5,5.9 C132.2,6.7 132.6,7.8 132.6,9.3 L132.6,15.6 L130,15.6 L130,9.7 C130,8.9 129.8,8.2 129.4,7.8 C129,7.4 128.5,7.1 127.8,7.1 C127.1,7.1 126.6,7.3 126.2,7.8 C125.8,8.2 125.6,8.9 125.6,9.7 L125.6,15.6 L123,15.6 L123,1.3 L125.6,1.3 Z" id="Shape"></path>
                            <path d="M135.6,14.3 C134.7,13.3 134.3,11.9 134.3,10.3 C134.3,8.7 134.7,7.4 135.6,6.3 C136.5,5.3 137.6,4.8 139,4.8 C140.4,4.8 141.4,5.4 142.1,6.6 L142.1,4.9 L144.6,4.9 L144.6,15.7 L142.1,15.7 L142.1,13.9 C141.3,15.2 140.3,15.9 139,15.9 C137.6,15.8 136.6,15.3 135.6,14.3 Z M141.3,12.6 C141.8,12 142.1,11.3 142.1,10.3 C142.1,9.3 141.8,8.5 141.3,8 C140.8,7.4 140.2,7.2 139.5,7.2 C138.8,7.2 138.2,7.5 137.7,8 C137.1,8.5 136.9,9.3 136.9,10.3 C136.9,11.3 137.2,12.1 137.7,12.6 C138.2,13.2 138.8,13.5 139.5,13.5 C140.2,13.5 140.8,13.2 141.3,12.6 Z" id="Shape"></path>
                            <polygon id="Shape" points="147.3 15.7 147.3 1.3 149.8 1.3 149.8 15.7"></polygon>
                        </g>
                    </g>
                    <g id="Original-Copy-5">
                        <path d="M14.3800001,11.7799997 C14.3800001,11.7799997 18.3311942,11.4015067 18.382115,8.02371652 C18.4330357,4.64592634 16.5986536,4.01353237 14.4079241,4.01353237 L14.3849051,23 L11.4415458,23.0219029 L11.5059989,0.992466518 L14.3333333,1 C17.1499856,1 21.1558315,2.49818638 21.1501116,7.94321987 C21.1443917,13.3882533 14.3809996,14.7219587 14.3809996,14.7219587" id="Oval-3"></path>
                        <path d="M13.3420492,14.7550548 C7.94186523,14.9662972 3.70614986,9.42708512 3.70614986,9.42708512 L3.7,16.4817276 L0.828404018,16.4635882 L0.906389509,0.918247768 C0.906389509,0.918247768 7.73405943,12.0701843 13.3178013,11.7770647" id="Combined-Shape"></path>
                    </g>
                </g>
            </g>
        </g>
    </g>
</svg>